<svg xmlns="http://www.w3.org/2000/svg" width="24" height="24" viewBox="0 0 24 24" fill="none" stroke="currentColor" stroke-width="1.6" stroke-linecap="round" stroke-linejoin="round" class="icon icon-tabler icons-tabler-outline icon-tabler-sigstore">
  <path stroke="none" d="M0 0h24v24H0z" fill="none"/>
  <path fill="none" d="M21.97 15.08 C 21.62 16.14, 20.49 16.99, 19.72 17.86 C 18.95 18.73, 18.25 19.57, 17.35 20.29 C 16.45 21.01, 15.41 21.96, 14.31 22.18 C 13.22 22.40, 11.92 21.85, 10.79 21.62 C 9.65 21.38, 8.56 21.20, 7.49 20.78 C 6.42 20.36, 5.08 19.93, 4.34 19.09 C 3.61 18.26, 3.43 16.86, 3.07 15.76 C 2.70 14.66, 2.32 13.62, 2.14 12.48 C 1.97 11.34, 1.67 9.97, 2.03 8.92 C 2.38 7.86, 3.51 7.01, 4.28 6.14 C 5.05 5.27, 5.75 4.43, 6.65 3.71 C 7.55 2.99, 8.59 2.04, 9.69 1.82 C 10.78 1.60, 12.08 2.15, 13.21 2.38 C 14.35 2.62, 15.44 2.80, 16.51 3.22 C 17.58 3.64, 18.92 4.07, 19.66 4.91 C 20.39 5.74, 20.57 7.14, 20.93 8.24 C 21.30 9.34, 21.68 10.38, 21.86 11.52 C 22.03 12.66, 22.33 14.03, 21.97 15.08 Z" />
  <circle cx="12" cy="12" r="8.25" fill="none" />
  <path fill="none" d="M14.3 5.7 C12.97 5.7 11.85 6.83 11.85 8.2 V15.8 C11.85 17.17 10.73 18.3 9.4 18.3" />
  <circle cx="7" cy="12" r="0.7" fill="currentColor" />
  <circle cx="17" cy="12" r="0.7" fill="currentColor" />
</svg>
